<?xml version="1.0" encoding="utf-8"?><svg xmlns="http://www.w3.org/2000/svg" xmlns:xlink="http://www.w3.org/1999/xlink"><symbol fill="none" viewBox="0 0 26 26" id="moon-icon" xmlns="http://www.w3.org/2000/svg"><path fill-rule="evenodd" clip-rule="evenodd" d="M15.372.216C10.593 1.2 7 5.43 7 10.5 7 16.299 11.701 21 17.5 21a10.47 10.47 0 007.612-3.267C23.219 22.573 18.51 26 13 26 5.82 26 0 20.18 0 13S5.82 0 13 0c.81 0 1.603.074 2.372.216z" fill="#fff"/></symbol><symbol fill="none" viewBox="0 0 26 26" id="sun-icon" xmlns="http://www.w3.org/2000/svg"><path fill-rule="evenodd" clip-rule="evenodd" d="M12 1a1 1 0 112 0v3a1 1 0 11-2 0V1zm6 12a5 5 0 11-10 0 5 5 0 0110 0zm-5 8a1 1 0 00-1 1v3a1 1 0 102 0v-3a1 1 0 00-1-1zm12-9a1 1 0 110 2h-3a1 1 0 110-2h3zM5 13a1 1 0 00-1-1H1a1 1 0 100 2h3a1 1 0 001-1zm15.778-9.192a1 1 0 111.414 1.414l-2.12 2.121a1 1 0 11-1.415-1.414l2.121-2.121zM7.343 18.657a1 1 0 00-1.414 0l-2.121 2.121a1 1 0 101.414 1.414l2.121-2.12a1 1 0 000-1.415zm14.85 2.121a1 1 0 01-1.415 1.414l-2.121-2.12a1 1 0 111.414-1.415l2.121 2.121zM7.342 7.343a1 1 0 000-1.414L5.222 3.808a1 1 0 00-1.414 1.414l2.12 2.121a1 1 0 001.415 0z" fill="#fff"/></symbol></svg>